<svg width="224" height="38" viewBox="38 0 224 38" fill="none" xmlns="http://www.w3.org/2000/svg">
<path d="M48.8757 8.9186H57.9984C60.1787 8.9186 62.1007 9.33935 63.7646 10.1809C65.4476 11.0032 66.7482 12.1699 67.6662 13.6808C68.6033 15.1916 69.0719 16.9512 69.0719 18.9593C69.0719 20.9674 68.6033 22.727 67.6662 24.2378C66.7482 25.7487 65.4476 26.9249 63.7646 27.7664C62.1007 28.5888 60.1787 29 57.9984 29H48.8757V8.9186ZM57.7689 25.1845C59.777 25.1845 61.374 24.6299 62.5598 23.5206C63.7646 22.3923 64.3671 20.8718 64.3671 18.9593C64.3671 17.0468 63.7646 15.5359 62.5598 14.4266C61.374 13.2983 59.777 12.7341 57.7689 12.7341H53.5231V25.1845H57.7689ZM82.3018 29.3443C80.2172 29.3443 78.3334 28.8948 76.6504 27.9959C74.9865 27.097 73.6764 25.8635 72.7201 24.2952C71.783 22.7078 71.3144 20.9292 71.3144 18.9593C71.3144 16.9894 71.783 15.2203 72.7201 13.6521C73.6764 12.0647 74.9865 10.8215 76.6504 9.92267C78.3334 9.02379 80.2172 8.57434 82.3018 8.57434C84.3865 8.57434 86.2607 9.02379 87.9246 9.92267C89.5885 10.8215 90.8986 12.0647 91.8548 13.6521C92.8111 15.2203 93.2892 16.9894 93.2892 18.9593C93.2892 20.9292 92.8111 22.7078 91.8548 24.2952C90.8986 25.8635 89.5885 27.097 87.9246 27.9959C86.2607 28.8948 84.3865 29.3443 82.3018 29.3443ZM82.3018 25.3853C83.4876 25.3853 84.5586 25.1176 85.5149 24.5821C86.4711 24.0275 87.217 23.2625 87.7525 22.2871C88.3071 21.3117 88.5844 20.2024 88.5844 18.9593C88.5844 17.7162 88.3071 16.6069 87.7525 15.6315C87.217 14.6561 86.4711 13.9007 85.5149 13.3652C84.5586 12.8106 83.4876 12.5333 82.3018 12.5333C81.1161 12.5333 80.0451 12.8106 79.0888 13.3652C78.1325 13.9007 77.3771 14.6561 76.8225 15.6315C76.287 16.6069 76.0192 17.7162 76.0192 18.9593C76.0192 20.2024 76.287 21.3117 76.8225 22.2871C77.3771 23.2625 78.1325 24.0275 79.0888 24.5821C80.0451 25.1176 81.1161 25.3853 82.3018 25.3853ZM115.056 29L115.027 16.9512L109.118 26.8771H107.023L101.142 17.2093V29H96.782V8.9186H100.626L108.142 21.3978L115.544 8.9186H119.359L119.417 29H115.056ZM124.181 8.9186H128.828V29H124.181V8.9186ZM152.012 8.9186V29H148.196L138.184 16.8077V29H133.594V8.9186H137.438L147.422 21.1109V8.9186H152.012ZM172.312 25.2706V29H156.763V8.9186H171.939V12.648H161.382V17.0085H170.705V20.6232H161.382V25.2706H172.312ZM184.931 29.3443C182.062 29.3443 179.825 28.5506 178.218 26.9632C176.631 25.3758 175.837 23.1095 175.837 20.1642V8.9186H180.485V19.9921C180.485 23.5876 181.976 25.3853 184.96 25.3853C186.413 25.3853 187.523 24.955 188.288 24.0944C189.053 23.2146 189.435 21.8472 189.435 19.9921V8.9186H194.025V20.1642C194.025 23.1095 193.222 25.3758 191.615 26.9632C190.028 28.5506 187.8 29.3443 184.931 29.3443ZM216.892 29L216.863 16.9512L210.953 26.8771H208.859L202.978 17.2093V29H198.618V8.9186H202.462L209.978 21.3978L217.38 8.9186H221.195L221.252 29H216.892Z" fill="green"/>
</svg>
